Title: 
Reality

Country: 
Italy/2012

Language: 
Italian

No subtitle

Director:
Matteo Garrone

Writers:
Matteo Garrone (story), Massimo Gaudioso (story)

Stars:
Aniello Arena, Loredana Simioli, Nando Paone

Sumary:
Luciano is a Neapolitan fishmonger who supplements his modest income by pulling off little scams together with his wife Maria. A likeable, entertaining guy, Luciano never misses an opportunity to perform for his customers and countless relatives. One day his family urge him to try out for Big Brother. In chasing this dream his perception of reality begins to change. 

Trivia:
Won Grand Prize of the Jury, in Cannes Film Festival 2012

Imdb: 
http://www.imdb.com/title/tt1846487/

Trailer: 
http://www.bandes-annonces.fr/film-2012/bande-annonce-reality.html


Media Info:

General
Complete name                            : Reality.2012.DVDRip.AC3.XviD.HORiZON-ArtSubs
Format                                   : AVI
Format/Info                              : Audio Video Interleave
File size                                : 1.56 GiB
Duration                                 : 1h 51mn
Overall bit rate                         : 2 002 Kbps
Writing application                      : FairUse Wizard - http://fairusewizard.com
Writing library                          : The best and REALLY easy backup tool

Video
ID                                       : 0
Format                                   : MPEG-4 Visual
Format profile                           : Advanced Simple@L5
Format settings, BVOP                    : 1
Format settings, QPel                    : No
Format settings, GMC                     : No warppoints
Format settings, Matrix                  : Default (MPEG)
Muxing mode                              : Packed bitstream
Codec ID                                 : XVID
Codec ID/Hint                            : XviD
Duration                                 : 1h 51mn
Bit rate                                 : 1 608 Kbps
Width                                    : 704 pixels
Height                                   : 296 pixels
Display aspect ratio                     : 2.40:1
Frame rate                               : 25.000 fps
Color space                              : YUV
Chroma subsampling                       : 4:2:0
Bit depth                                : 8 bits
Scan type                                : Progressive
Compression mode                         : Lossy
Bits/(Pixel*Frame)                       : 0.309
Stream size                              : 1.25 GiB (80%)
Writing library                          : XviD 1.2.1 (UTC 2008-12-04)

Audio
ID                                       : 1
Format                                   : AC-3
Format/Info                              : Audio Coding 3
Mode extension                           : CM (complete main)
Format settings, Endianness              : Big
Codec ID                                 : 2000
Duration                                 : 1h 51mn
Bit rate mode                            : Constant
Bit rate                                 : 384 Kbps
Channel(s)                               : 6 channels
Channel positions                        : Front: L C R, Side: L R, LFE
Sampling rate                            : 48.0 KHz
Bit depth                                : 16 bits
Compression mode                         : Lossy
Stream size                              : 306 MiB (19%)
Alignment                                : Split accross interleaves
Interleave, duration                     : 40 ms (1.00 video frame)
Interleave, preload duration             : 500 ms

